<svg id="Capa_1" data-name="Capa 1" xmlns="http://www.w3.org/2000/svg" viewBox="0 0 1198.65 1198.57"><defs><style>.cls-1{fill:#ffdc22;}.cls-2{fill:#fbba00;}.cls-3{fill:maroon;}.cls-14,.cls-4{fill:#660b0a;}.cls-5{fill:#688186;}.cls-6{fill:#fdfdfd;}.cls-7{fill:#c9e0e5;}.cls-8{fill:#9cc3ca;}.cls-9{fill:#dbe7d1;}.cls-10{fill:#9bc2c9;}.cls-11{fill:#f7931e;opacity:0.7;}.cls-12{fill:#000101;}.cls-13{fill:#fff;}.cls-14{stroke:#000;stroke-miterlimit:10;}.cls-15{fill:#8c001a;}</style></defs><title>logot</title><path class="cls-1" d="M321.15,844.41s105-104.19,9.56-219.66c0,0,146.65,8.78,165.77-158.24,0,0,68.65,115.42,218.1,19.42,0,0-10.07,132.18,150.36,159.18,0,0-106.07,118.87-7.14,219.44,0,0-156.56,16.41-166,155.83,0,0-113.84-104.1-224.27-6.71C467.55,1013.67,469.77,861.52,321.15,844.41Z" transform="translate(-113.68 -64.71)"/><ellipse class="cls-2" cx="593.05" cy="744.76" rx="180.4" ry="171.93" transform="translate(-177.58 -9) rotate(-5.1)"/><path class="cls-3" d="M947.23,848.48s-5.3,11.19-17.1-1.38-20.45-19.49-10.82-33.22,9.48-14.21,18.46-16.29,131.82-41.5,131.82-41.5l97.6-27.36s1.87,17.6,3.86,24.49S1184.62,775,1184.62,775l-89.88,28Z" transform="translate(-113.68 -64.71)"/><path class="cls-4" d="M1170.07,727s-2.48,6.3.38,21.24c0,0-44.26-2.13-130.48,19.25Z" transform="translate(-113.68 -64.71)"/><path class="cls-5" d="M345.74,998.87s-22.46-25.45,11-53.45,109.41-51.65,153.87-60.87,128-21.17,218.4-15.6,131.34,25.65,149.11,44.1c0,0,15.45,14.1,5.61,37.77,0,0,24.65-25,17.3-60,0,0-2.5-11.83-5.83-16.53,0,0,2.53,40.44-33.83,17.82,0,0-25.62-17.5-15.34-40.45,0,0,7.11-13,14.79-17.78,0,0-35.6-13-68.2-20.75s-88.82-18.63-125.1-19.58-102.28-2.69-148,10.52-74.13,14.5-125.09,41c0,0-86.2,40.24-96.81,74.61C297.63,919.59,285.79,957.12,345.74,998.87Z" transform="translate(-113.68 -64.71)"/><path class="cls-3" d="M1183.42,774.38s23.29,5.52,42.21-3.77,27.75-46.54-5.39-60.3-48.53,18-48.53,18S1158.94,746.94,1183.42,774.38Z" transform="translate(-113.68 -64.71)"/><path class="cls-6" d="M348.54,871.74s11.46,38.11,39.53,51l-23.2,15S336.54,925,330.6,883.45Z" transform="translate(-113.68 -64.71)"/><ellipse class="cls-7" cx="612.38" cy="956.06" rx="275.45" ry="85.51" transform="translate(-196.3 -6.44) rotate(-5.1)"/><path d="M423.28,1035.83c-54.31-11.69-85.39-31.24-87.52-55.06s25-48.58,76.38-69.71c50.58-20.8,118.92-35.87,192.43-42.43s143.43-3.85,196.9,7.66C855.78,888,886.86,907.53,889,931.35s-25,48.58-76.37,69.71c-50.59,20.79-118.93,35.87-192.43,42.43S476.75,1047.33,423.28,1035.83Zm-9.42-120.57c-48.66,20-75.48,43.74-73.57,65.1s32.5,40,83.95,51c53,11.41,122.48,14.1,195.54,7.58s140.93-21.48,191.11-42.11c48.67-20,75.49-43.74,73.58-65.1s-32.51-40-84-51c-53-11.41-122.49-14.11-195.55-7.58S464,894.63,413.86,915.26Z" transform="translate(-113.68 -64.71)"/><ellipse class="cls-8" cx="605.18" cy="960.5" rx="230.8" ry="67.35" transform="translate(-196.73 -7.07) rotate(-5.1)"/><path class="cls-6" d="M796.41,813.51s-1.92,51.49-21.53,59.63L751.23,869s27.62-24,20.39-60.85Z" transform="translate(-113.68 -64.71)"/><path class="cls-9" d="M457.89,1038.23s-69.63-9.08-88.61-22.47L647.93,869.31s96.75-5.6,151.39,10.79Z" transform="translate(-113.68 -64.71)"/><polygon class="cls-9" points="751.38 836.87 416.69 977.53 366.21 975.14 722.9 824.22 751.38 836.87"/><path class="cls-10" d="M932.77,800.57s-5.2,4.95-7.54,6.71-12.3,9.88-7.9,24.87,23,19.4,23,19.4-12.69,12.52-26,7.26-4.92-2.25-14.81.55l-9.89,2.8s7.24,13,6,16.18-4.53,26.34-23.79,18.89-27.65-18.26-28-29.92,4.78-31.54,29.7-37,29.07-27.08,29.07-27.08S908.54,784.5,932.77,800.57Z" transform="translate(-113.68 -64.71)"/><path d="M344.55,1000.8l2.37-3.87c-.55-.33-54.82-34.17-46.92-75.4,2.24-11.7,24.8-35.72,69-60.79,51.52-29.19,239.3-117.21,493-24.44l1.56-4.27c-98.49-36-197.74-48.76-295-37.89-98.85,11-168.86,44-201.79,62.65-39.61,22.45-68.25,48.12-71.27,63.88C287.05,965,342.2,999.36,344.55,1000.8Z" transform="translate(-113.68 -64.71)"/><path class="cls-11" d="M436.16,829s97.3-33.51,164.12-33.91S707,793.63,760.34,806.6a120.79,120.79,0,0,0,10.59-32.54s-154.43-64.4-347.76,31.06C423.17,805.12,427.82,820.6,436.16,829Z" transform="translate(-113.68 -64.71)"/><path class="cls-12" d="M900.57,890.81s3,34.53-14,56.64c0,0,1.14,3.77.49-20.48,0,0,13.19-22.46,8.08-52.72C895.16,874.25,900.3,887.8,900.57,890.81Z" transform="translate(-113.68 -64.71)"/><path d="M344.55,1000.8l2.37-3.87c-.55-.33-54.82-34.17-46.92-75.4,2.24-11.7,24.8-35.72,69-60.79,51.52-29.19,239.3-117.21,493-24.44l1.56-4.27c-98.49-36-197.74-48.76-295-37.89-98.85,11-168.86,44-201.79,62.65-39.61,22.45-68.25,48.12-71.27,63.88C287.05,965,342.2,999.36,344.55,1000.8Z" transform="translate(-113.68 -64.71)"/><path class="cls-12" d="M863.54,972.78c36.19-26.95,41.89-55.94,40.3-75.52a79,79,0,0,0-12.34-36.41l-3.7,2.62a75.88,75.88,0,0,1,11.53,34.36c2.1,26.73-10.86,50.72-38.5,71.3Z" transform="translate(-113.68 -64.71)"/><path d="M911.07,859.54c-13.65-9.25-16.52-37.08-12.42-51.42,2.9-10.17,8.55-13.86,12.77-15.15,7.53-2.31,15.55,1.18,18.84,3.93a4.88,4.88,0,0,1,1.84,3.84c0,2.62-2.07,5.58-6.28,9-7.06,5.79-9.43,15.26-5.76,23,5.39,11.41,20.3,17.41,20.45,17.47l3.71,1.47-3.15,2.44c-7.24,5.59-13.28,7.89-18.21,8.34A17.74,17.74,0,0,1,911.07,859.54ZM916,834.73c-4.56-9.66-1.69-21.37,7-28.48,4.47-3.66,4.61-5.36,4.61-5.54s0-.15-.22-.33c-2.15-1.8-8.56-4.92-14.59-3.07-4.58,1.41-7.85,5.46-9.74,12.05-3.69,12.93-.8,38.69,10.61,46.42,5.69,3.85,12.94,2.84,21.6-3C930,850.1,920.4,844.13,916,834.73Z" transform="translate(-113.68 -64.71)"/><path d="M939.76,855.08c.47-.28,12.72-7.34,78.9-26.53,80.1-23.23,167.91-49.77,168.79-50l5.36-1.63-4.3-3.59c-22.71-19-15.72-42.94-15.41-43.95l1.5-4.91-5,1.06c-48.5,10.32-85.1,22.13-117.43,33.35C1005.6,775,928.87,797,928.1,797.24l1.67,5.82c.77-.22,77.66-22.29,124.36-38.49,31.14-10.81,66.26-22.17,112.23-32.19a49.27,49.27,0,0,0,14.25,41.88c-19.89,6-94.63,28.46-163.63,48.47-67.75,19.65-79.92,26.9-80.4,27.2Z" transform="translate(-113.68 -64.71)"/><path d="M1205,778.89a58.36,58.36,0,0,0,20.47-5.43c11.17-5.48,19-19.58,18.52-33.54-.45-14.34-9.23-26.1-24.08-32.27-35.37-14.68-52.25,19.15-52.42,19.49l5.44,2.64c.59-1.19,14.62-29,44.66-16.54,17.2,7.14,20.13,19.9,20.35,26.87.37,11.69-6,23.43-15.14,27.92-17.74,8.71-40,3.6-40.18,3.54l-1.39,5.89A81.26,81.26,0,0,0,1205,778.89Z" transform="translate(-113.68 -64.71)"/><path class="cls-12" d="M339.35,965.62s-27-22.9-34.48-56.87c0,0,13.27-13.9,23-20.41,0,0,4.72,36.84,34.08,52.28C361.93,940.62,350.34,948.3,339.35,965.62Z" transform="translate(-113.68 -64.71)"/><path class="cls-13" d="M478.64,828.21a180.09,180.09,0,0,0-30.6,5.88,213,213,0,0,0-29.47,10.38c-4.78,2.1-9.49,4.4-14.07,6.95a130.43,130.43,0,0,0-13.31,8.38c-8.54,6-16.42,13.41-21.95,22.26a129,129,0,0,1,24.53-18.31c2.17-1.31,4.43-2.49,6.62-3.76s4.49-2.4,6.79-3.5c4.55-2.27,9.15-4.45,13.83-6.48C439.68,841.75,459.05,835,478.64,828.21Z" transform="translate(-113.68 -64.71)"/><path class="cls-13" d="M876.22,947.79A179.73,179.73,0,0,1,853.42,969a213.24,213.24,0,0,1-25.78,17.67c-4.51,2.62-9.15,5.06-13.91,7.25a130.8,130.8,0,0,1-14.62,5.81c-9.92,3.33-20.51,5.34-30.92,4.58a129,129,0,0,0,29.25-9c2.34-1,4.63-2.1,6.95-3.13s4.58-2.2,6.83-3.41c4.51-2.33,9-4.76,13.39-7.34C842.3,971.26,859.14,959.58,876.22,947.79Z" transform="translate(-113.68 -64.71)"/><path class="cls-12" d="M829,821.23s-5.53,49-19,59.44c-3.91,3-3,.27-3,.27l-20.69-5.19s25.51-28.09,22.43-60.31Z" transform="translate(-113.68 -64.71)"/><path class="cls-12" d="M365.19,862.66s12.88,40.18,42.05,51.26l-5.58,2.4s-27.59-13.68-39.9-51.76Z" transform="translate(-113.68 -64.71)"/><path d="M373.72,980.41c-3.47-38.88,95.77-78.45,225.95-90.07S834.53,900.06,838,939s-95.78,78.44-226,90.07S377.19,1019.3,373.72,980.41Zm66.18-51.53c-40.67,15.91-63.14,34.55-61.66,51.13S405.14,1011,448,1019.4c44.34,8.76,102.47,10.57,163.66,5.1s118.08-17.55,160.17-34c40.67-15.91,63.15-34.55,61.67-51.13s-26.91-30.94-69.75-39.4c-44.35-8.75-102.47-10.56-163.67-5.09S482,912.41,439.9,928.88Z" transform="translate(-113.68 -64.71)"/><ellipse class="cls-14" cx="1216.81" cy="739.16" rx="15.45" ry="20.25" transform="translate(-284.84 357.41) rotate(-18.41)"/><path class="cls-14" d="M1201.43,744.28h0c-3.66-11,.26-22.22,8.75-25,4.14-1.38,8.73-.57,12.9,2.27a25.67,25.67,0,0,1,9.34,28c-1.64,4.78-4.83,8.17-9,9.55a13,13,0,0,1-2.87.6C1212.84,760.38,1204.68,754,1201.43,744.28Zm9.22-23.61c-7.69,2.56-11.18,12.94-7.79,23.13h0c3.4,10.2,12.42,16.41,20.1,13.85,3.69-1.22,6.54-4.28,8-8.6a24.12,24.12,0,0,0-8.75-26.3,13.81,13.81,0,0,0-9-2.61A10.88,10.88,0,0,0,1210.65,720.67Z" transform="translate(-113.68 -64.71)"/><path d="M423.28,1035.83c-54.31-11.69-85.39-31.24-87.52-55.06s25-48.58,76.38-69.71c50.58-20.8,118.92-35.87,192.43-42.43s143.43-3.85,196.9,7.66C855.78,888,886.86,907.53,889,931.35s-25,48.58-76.37,69.71c-50.59,20.79-118.93,35.87-192.43,42.43S476.75,1047.33,423.28,1035.83Zm-9.42-120.57c-48.66,20-75.48,43.74-73.57,65.1s32.5,40,83.95,51c53,11.41,122.48,14.1,195.54,7.58s140.93-21.48,191.11-42.11c48.67-20,75.49-43.74,73.58-65.1s-32.51-40-84-51c-53-11.41-122.49-14.11-195.55-7.58S464,894.63,413.86,915.26Z" transform="translate(-113.68 -64.71)"/><path d="M870.51,877.54a5.3,5.3,0,1,1,5.75,4.81A5.3,5.3,0,0,1,870.51,877.54Zm3-.27a2.27,2.27,0,1,0,2.06-2.46A2.28,2.28,0,0,0,873.52,877.27Z" transform="translate(-113.68 -64.71)"/><path d="M1064.81,790.29a2.12,2.12,0,0,0,.86-.25,2.27,2.27,0,0,0,.94-3.07c-8.24-15.53-7.45-21.71-6.25-24a3.05,3.05,0,0,1,1.92-1.69,2.27,2.27,0,0,0,2-2.53,2.23,2.23,0,0,0-2.53-2,7.42,7.42,0,0,0-5.4,4.1c-2.87,5.49-.77,15,6.26,28.24A2.26,2.26,0,0,0,1064.81,790.29Z" transform="translate(-113.68 -64.71)"/><path d="M1049.11,783.34a1.54,1.54,0,0,0,.58-.17,1.51,1.51,0,0,0,.62-2c-5.15-9.72-4.73-13.65-4-15.13a1.9,1.9,0,0,1,1.25-1.13,1.54,1.54,0,0,0,1.25-1.72,1.47,1.47,0,0,0-1.65-1.28,4.8,4.8,0,0,0-3.49,2.64c-1.84,3.52-.5,9.59,4,18A1.5,1.5,0,0,0,1049.11,783.34Z" transform="translate(-113.68 -64.71)"/><path class="cls-12" d="M851.12,881.55a64.68,64.68,0,0,1-3.56-5.76c-3-6.34-3.07-12.93-1.75-19.59,1.29-6.49,4.84-10.79,9.21-16,2.74-3.28,6.82-4.16,8.64-5.33,3.35-.86,3.56-.58,6.79-1.83.11,0,.19-.1.3-.14h.15C864,840,844,853.32,851.12,881.55Z" transform="translate(-113.68 -64.71)"/><path d="M893.85,872.32a1.26,1.26,0,0,1,2.52-.1A46.53,46.53,0,0,1,896,883a27.69,27.69,0,0,1-3.62,10.5,15.9,15.9,0,0,1-4,4.39,13.8,13.8,0,0,1-5.52,2.48,22.82,22.82,0,0,1-11.4-1,51.79,51.79,0,0,1-9.94-4.54,50,50,0,0,1-8.82-6.48,33.2,33.2,0,0,1-7.43-40.94,35.68,35.68,0,0,1,15.57-15.65,28.57,28.57,0,0,1,5.34-2l5-1.26a59.9,59.9,0,0,0,9.33-3.63,45.53,45.53,0,0,0,8.3-5.41,35.61,35.61,0,0,0,3.56-3.38c.55-.59,1.07-1.21,1.56-1.84a19.39,19.39,0,0,0,1.27-1.84l7.9-14-3.42,15.77a40.08,40.08,0,0,0-.71,5.25,50.62,50.62,0,0,0,1.37,16.12,45.47,45.47,0,0,0,3.91,10,43.24,43.24,0,0,0,6.26,8.71l2.26,2.44-3,1.37A68.74,68.74,0,0,1,902,861.1a61.37,61.37,0,0,1-8.23,2,38.2,38.2,0,0,1-8.65.53,22.41,22.41,0,0,1-8.75-2.22,2.27,2.27,0,0,1,2-4.07l0,0a17.86,17.86,0,0,0,7,1.67,33.71,33.71,0,0,0,7.59-.54,54.52,54.52,0,0,0,7.57-1.92,62.76,62.76,0,0,0,7.27-2.86l-.7,3.81a46.46,46.46,0,0,1-11.42-20.77A54.7,54.7,0,0,1,894.05,825a53.55,53.55,0,0,1,.15-5.94,43.86,43.86,0,0,1,.85-6l4.49,1.73a27.42,27.42,0,0,1-3.52,4.63,40.52,40.52,0,0,1-4,3.82,50.69,50.69,0,0,1-9.22,6,65.24,65.24,0,0,1-10.18,3.93l-5.14,1.27a25.15,25.15,0,0,0-4.45,1.66c-11.53,5.7-19,19.65-16.6,32.38A29.94,29.94,0,0,0,855.86,885a46,46,0,0,0,8,5.92,48.82,48.82,0,0,0,9,4.31,18.44,18.44,0,0,0,9.22,1.06,10.93,10.93,0,0,0,7.17-4.85,25.88,25.88,0,0,0,3.56-9,49.18,49.18,0,0,0,1-10.05Z" transform="translate(-113.68 -64.71)"/><path class="cls-3" d="M126.68,664.06c0-76.61.15-153.23-.19-229.84,0-9.37,2.72-16.05,9.35-22.65q162.72-162.26,325-325c6.14-6.16,12.3-9.08,21.26-9.06q231.27.41,462.55,0c8.35,0,14.24,2.62,20.06,8.46q162.75,163.22,325.94,326c6.27,6.25,8.91,12.55,8.9,21.38q-.33,230.57,0,461.12c0,8.81-2.55,15.13-8.84,21.4q-163.22,162.76-326,326c-5.81,5.82-11.65,8.53-20,8.52q-232-.33-464,0c-7.87,0-13.4-2.52-18.82-8q-163.29-163.69-326.95-327c-6.39-6.37-8.42-12.91-8.4-21.58C126.78,817.29,126.68,740.68,126.68,664.06Zm1149.54-.1c0-73.76-.09-147.52.13-221.27,0-7.6-1.53-13.31-7.24-19Q1110.84,266,953.15,107.81c-5.24-5.25-10.25-7.16-17.48-7.15q-222.72.28-445.42,0c-7.27,0-12.24,2-17.44,7.24Q315.09,266.1,156.87,423.8c-5.19,5.17-7.23,10.27-7.22,17.55q.3,222.71,0,445.42c0,7.31,2.12,12.38,7.28,17.53q157.68,157.23,314.9,314.91c5.89,5.91,11.64,8.22,20,8.21q221.26-.39,442.54,0c8.36,0,14.06-2.4,19.93-8.29q156.69-157.19,313.9-313.87c5.92-5.89,8.27-11.71,8.24-20C1276.09,811.47,1276.22,737.71,1276.22,664Z" transform="translate(-113.68 -64.71)"/><path class="cls-3" d="M944.75,1263.29h-.07c-151.65-.22-307.75-.22-464,0h-.07c-11,0-19.87-3.72-27.85-11.71-130.33-130.67-231.16-231.52-326.92-327-8.45-8.42-12.2-17.89-12.16-30.69.19-59,.17-118.92.15-176.91q0-26.44,0-52.89h0q0-26.68,0-53.39c0-57.82.05-117.61-.2-176.39-.06-12.72,4.11-22.82,13.11-31.79C228.59,301,334.87,194.69,451.71,77.54c8.73-8.75,18.35-12.83,30.27-12.83h.09c146.1.26,297.39.27,462.52,0h.07c11.52,0,20.76,3.89,29.08,12.23,115.7,116,222.3,222.66,325.91,326,8.66,8.63,12.68,18.31,12.67,30.47-.22,151.79-.21,306.92,0,461.08,0,12.22-4,21.91-12.6,30.5C1197.58,1026.87,1091,1133.5,973.79,1251,965.43,1259.38,956.2,1263.29,944.75,1263.29Zm-232.1-48.88c74.31,0,148.38.07,221.7.2h.07c4.85,0,7.27-1,10.76-4.52,103.63-104,209.26-209.58,313.94-313.91,3.44-3.43,4.48-6,4.46-10.9-.24-57-.22-114.95-.19-171q0-25.17,0-50.33,0-24.53,0-49c0-56.46,0-114.84.14-172.27,0-5.52-1-7.43-3.47-9.88-103.54-103.14-209.86-209.43-316-315.91-2.68-2.68-4.4-3.38-8.35-3.38h0c-149.9.19-299.77.19-445.45,0h0c-3.85,0-5.56.72-8.31,3.47C381,218.15,277.64,321.49,165.92,432.87c-2.72,2.71-3.46,4.53-3.45,8.47.2,149.07.2,298.94,0,445.45,0,3.86.75,5.67,3.52,8.43,113.33,113,216.34,216,314.93,314.94,3.43,3.44,5.86,4.44,10.8,4.44h.06C565.28,1214.47,639.09,1214.41,712.65,1214.41Z" transform="translate(-113.68 -64.71)"/><path class="cls-15" d="M545.7,170.91c-10.33-5.53-27.08,4.63-28.69,23.34s31.9,38.84,33.32,64.68c2.14,39.38-36.7,59.51-60.76,46.32-35.63-19.42-17.81-65.21,2.68-57-3,11.4.53,39.91,23.34,39.91,10,0,16-4.81,16.93-14.79,2.13-25.3-43.66-34.57-40.27-73.05,2.14-25.66,26.37-45.08,51.67-40.45,14.43,2.67,26.55,13.9,24.59,30.83-3,24.41-25.84,21.91-28.51,13.89C547.3,197.63,554.79,175.72,545.7,170.91Z" transform="translate(-113.68 -64.71)"/><path class="cls-15" d="M604.14,277.81c-7.66,12.66-17.64,18.36-30.11,17.29a20.9,20.9,0,0,1-14.61-8.91c-3.74-5-5.52-11.23-5.34-18.53A82.28,82.28,0,0,1,559.42,242a53,53,0,0,1,13.9-21.2A31.32,31.32,0,0,1,596.13,213c13,.71,19.42,8.19,19.42,22.8a91.15,91.15,0,0,1-.54,10.16,7.85,7.85,0,0,0,1.79-.36A22.51,22.51,0,0,0,627.31,237l.71.36a19.84,19.84,0,0,0,2,1.6c-.36.54-.89,1.25-1.6,2.32a45.45,45.45,0,0,1-8,9.44,25.7,25.7,0,0,1-6.77,3.92A79.06,79.06,0,0,1,604.14,277.81Zm.18-45.25c-.35-5.53-2-8.2-5.16-8.2s-6.42,2.67-9.45,8.2a75.63,75.63,0,0,0-7.3,18.53,68,68,0,0,0-2.85,18.35c.17,5.35,1.78,8,5,8q5.09,0,9.63-8a73.28,73.28,0,0,0,6.59-15.14l-.89-.9a6,6,0,0,1-1.43-5.16,11.77,11.77,0,0,1,2.14-4.81c1.25-1.43,2.14-2,3.21-1.79A83.8,83.8,0,0,0,604.32,232.56Z" transform="translate(-113.68 -64.71)"/><path class="cls-15" d="M695.91,264.81c-3,10.15-11.58,28.33-24.06,28.33-11.22,0-15.5-6.95-16.21-15.86-5.17,8.2-12.65,15.86-20.49,15.86-20.14,0-20.14-21.92-14.61-39,4.27-13.72,9.09-28.69,11.76-36.71h24.23c-5.17,16.22-8.55,26.55-11.94,37.78-3.74,12.83-3.56,19.6,1.78,19.6,5.53,0,10.52-13.55,12.48-19.6,0,0,9.44-29.76,11.93-37.78h22.63c-5.16,16.22-8.73,26.55-11.93,37.78-3.75,12.83-3.57,20.49,1.78,20.31,3.92-.18,7.84-6.95,9.26-11.76Z" transform="translate(-113.68 -64.71)"/><path class="cls-15" d="M717.47,255.19c-3.74,12.65-3.57,20.49,1.78,20.31,3.92-.18,7.84-7.13,9.26-11.94l3.57,1.25C728.87,275,720.32,293.14,708,293.14c-20.31,0-18.35-21.92-13-39,2.85-8.73,8.55-26.37,13-40.45H698.4l2-5h9.09c2-6.06,3.56-11.05,4.28-13.36l24.76-6.59c-1.6,5-3.92,12.11-6.41,20h8.19l-1.78,5h-8C725.13,230.06,719.61,248.06,717.47,255.19Z" transform="translate(-113.68 -64.71)"/><path class="cls-15" d="M805.67,265.52c-3,10.16-14.61,30.83-28,30.83-22.27,0-15.32-24.41-12.83-32.25,4.1-13.9,7.84-26.55,8.56-29.23,1.24-4.45-.54-7.12-2.32-7.12-4.1,0-11.94,10.15-15.15,19.6l-14.61,45.79H718.71l35.11-110.29h22.63l-14.62,46.32c5-7.84,13.37-16.21,22.1-16.21,13.9,0,16.93,10.33,13.54,22.45,0,.18-7.31,23.34-8.91,29.58-1.78,6.23-1.07,11,4.81,11,3.21,0,6.42-4.27,8.91-11.76Z" transform="translate(-113.68 -64.71)"/><path class="cls-15" d="M861.08,229.88c0,15.86-14.43,31.54-32.07,30.12-4.81-.36-7.13-3.74-7.13-6.6,18-2.31,29.4-29.4,20.31-29.4-14.61,0-24.94,33.32-16.39,44.55,12.3,16.21,33.14,2.14,35.46-4.81,1.6.36,2.67.71,2.67.71s-8.73,29-36.17,29c-45.26,0-28.86-80.35,16.39-80.35C852.17,213.14,861.08,220.08,861.08,229.88Z" transform="translate(-113.68 -64.71)"/><path class="cls-15" d="M928.61,227.75c-1.78,15.68-19.24,18.35-21.38,15,3.92-7.12,3.92-15.68-2.49-15.68-4.1,0-12.12,8.73-17.11,21.92l-13.9,44.19H850.57l24.59-78h23.16l-4.27,13.54c5.16-8.2,12.29-15.68,20.66-15.68C920.06,213,930.22,215.81,928.61,227.75Z" transform="translate(-113.68 -64.71)"/><path class="cls-15" d="M1001.67,265.52c-3,10.16-14.79,30.83-28.16,30.83-22.27,0-15.14-24.41-12.83-32.25,4.28-13.9,8-26.91,8.56-29.23,1.24-5-.54-7.12-2.32-7.12-3.92,0-12.65,11.93-15,19.6l-14.61,45.79H914.71l23.7-75h22.81l-3.56,11.41c5-7.31,13-16.57,21.91-16.57,13.72,0,18,10.51,13.9,22.63,0,0-7.31,23.34-8.91,29.4-1.78,6.23-1.07,11.22,4.81,11.22,3.21,0,6.42-4.45,8.91-11.76Z" transform="translate(-113.68 -64.71)"/><path class="cls-15" d="M706.92,383.48c3.78,30.79,21.6,67.7,53.12,67.7,0,26.47-29.17,29.72-41.24,21.07-25-17.82-24.85-70.22-24.85-83-1.44.54-2.88,1.08-4.5,1.8-9.72,35.65-22.87,69.33-43,69.33-13.68,0-21.06-10.09-21.06-24.49a24.72,24.72,0,0,0,13.14-3.78c22.69-13.51,42.14-71,53.84-103C674.5,334,645,350.53,645,375.92c-9.36,0-20.53-9.19-17.1-23.77,7.56-30.61,50.78-29.17,68.78-34.4,1.44-4.14,3.42-7.38,5-8.64,3.25-2.16,9.37-.72,10.81,2.16.36.54.54,3.42-.72,6.3a26.65,26.65,0,0,1-5.22,7.21c-4,12.78-8.47,32.41-13.51,53.12,23.59-9.37,53.3-36.2,55.46-71.49,11,0,17.65,8.82,17.29,16.39C765.8,349.09,734.11,373.21,706.92,383.48Z" transform="translate(-113.68 -64.71)"/><path class="cls-15" d="M776.24,365.11c-5.22,16.39-8.82,26.83-12.07,38.18-3.78,13-3.6,20.7,1.8,20.52,4-.18,7.93-7,9.37-11.88l3.42,1.08c-3.06,10.26-11.71,28.63-24.13,28.63-20.35,0-18.55-22.15-13-39.25,4.32-14.05,9.18-29.18,11.88-37.28Zm-7-6.84a12.43,12.43,0,1,1,12.42-12.43A12.45,12.45,0,0,1,769.22,358.27Z" transform="translate(-113.68 -64.71)"/><path class="cls-15" d="M800.19,403.29c-3.79,12.78-3.6,20.7,1.8,20.52,4-.18,7.92-7.2,9.36-12.06L815,413c-3.24,10.26-11.88,28.63-24.31,28.63-20.52,0-18.54-22.15-13.14-39.43,2.88-8.83,8.64-26.65,13.14-40.88h-9.72l2-5h9.18c2-6.12,3.6-11.17,4.32-13.51l25-6.66c-1.62,5-4,12.25-6.48,20.17h8.29l-1.81,5h-8.1C807.93,377.9,802.35,396.08,800.19,403.29Z" transform="translate(-113.68 -64.71)"/><path class="cls-15" d="M871.13,376.64c0,8.64-6.3,15.3-14.4,15.3-3.61,0-6.85-2.34-6.85-4.14,5-2.88,11.53-19.63,2.52-19.63-14.94,0-26.47,37.46-18.36,49.16,9.9,14.23,31.87,5.4,36-5.22a19.75,19.75,0,0,0,2.7.72s-9,29.71-36.55,29.71c-45.92,0-29.35-82.65,16.38-82.65C863,359.89,871.13,366.55,871.13,376.64Z" transform="translate(-113.68 -64.71)"/><path class="cls-15" d="M946.76,413.73C943.69,424,932,444.88,918.49,444.88c-22.51,0-15.49-24.67-13-32.59,4.14-14.05,7.92-26.83,8.64-29.53,1.26-4.5-.54-7.2-2.34-7.2-4.14,0-12.06,10.26-15.3,19.8l-14.77,46.28H858.88l35.48-111.46h22.86L902.46,377c5-7.93,13.5-16.39,22.33-16.39,14,0,17.1,10.44,13.68,22.69,0,.18-7.38,23.59-9,29.89-1.8,6.3-1.08,11.16,4.86,11.16,3.24,0,6.48-4.32,9-11.88Z" transform="translate(-113.68 -64.71)"/><path class="cls-15" d="M1002.75,377.72c0,16-14.58,31.87-32.41,30.43-4.86-.36-7.2-3.78-7.2-6.66,18.18-2.35,29.71-29.72,20.53-29.72-14.77,0-25.21,33.68-16.57,45,12.42,16.39,33.49,2.16,35.83-4.86,1.62.36,2.7.72,2.7.72S996.81,442,969.08,442c-45.74,0-29.17-81.21,16.57-81.21C993.75,360.79,1002.75,367.81,1002.75,377.72Z" transform="translate(-113.68 -64.71)"/><path class="cls-15" d="M1080,413.73c-3.06,10.26-15,31.15-28.45,31.15-22.51,0-15.31-24.67-13-32.59,4.33-14.05,8.11-27.19,8.65-29.53,1.26-5-.54-7.2-2.34-7.2-4,0-12.79,12.06-15.13,19.8L1015,441.64H992.13l24-75.81h23.05l-3.61,11.53c5-7.39,13.15-16.75,22.15-16.75,13.87,0,18.19,10.62,14,22.87,0,0-7.39,23.59-9,29.71-1.8,6.3-1.08,11.34,4.87,11.34,3.24,0,6.48-4.5,9-11.88Z" transform="translate(-113.68 -64.71)"/></svg>